<svg width="28" height="22" viewBox="0 0 28 22" fill="none" xmlns="http://www.w3.org/2000/svg">
<path d="M12.1401 0.0272533C5.4457 0.0272533 0 4.30602 0 9.5659C0 14.8258 5.4457 19.1045 12.1401 19.1045C14.1866 19.1045 16.1984 18.723 17.898 17.9872C18.0341 18.1159 18.185 18.2345 18.3489 18.3414L21.8175 21.0668C22.1378 21.3499 22.5283 21.5787 22.9652 21.739C23.4021 21.8992 23.876 21.9876 24.3579 21.9988C24.8399 22.0099 25.3196 21.9436 25.7677 21.8038C26.2158 21.664 26.6228 21.4537 26.9638 21.1858C27.3047 20.9179 27.5723 20.5981 27.7503 20.2461C27.9282 19.894 28.0127 19.517 27.9985 19.1384C27.9843 18.7597 27.8717 18.3873 27.6678 18.0441C27.4638 17.7008 27.1727 17.394 26.8123 17.1423L23.3437 14.417C23.1747 14.2842 22.9887 14.1654 22.7887 14.0627C23.7252 12.7273 24.3149 11.1738 24.3149 9.53864C24.3149 4.27876 18.8692 0 12.1748 0L12.1401 0.0272533ZM12.1401 2.75258C16.9614 2.75258 20.8116 5.77769 20.8116 9.5659C20.8116 11.3646 19.9791 13.0271 18.5223 14.2535C18.4876 14.2807 18.4529 14.308 18.4183 14.3352C18.2544 14.4422 18.1035 14.5608 17.9673 14.6895C16.4412 15.7796 14.36 16.4065 12.1054 16.4065C7.28406 16.4065 3.43391 13.3814 3.43391 9.59315C3.43391 5.80495 7.28406 2.77983 12.1054 2.77983L12.1401 2.75258Z" fill="black"/>
</svg>
